<svg width="29" height="28" viewBox="0 0 29 28" fill="none" xmlns="http://www.w3.org/2000/svg">
<path d="M25.5319 11.8463C25.6755 12.6152 25.7536 13.419 25.7536 14.2578C25.7536 20.8192 21.3623 25.4847 14.7298 25.4847C13.2214 25.4853 11.7277 25.1886 10.3341 24.6117C8.94041 24.0347 7.6741 23.1888 6.60753 22.1222C5.54096 21.0557 4.69503 19.7894 4.11809 18.3957C3.54115 17.002 3.2445 15.5083 3.24512 14C3.2445 12.4916 3.54115 10.9979 4.11809 9.60427C4.69503 8.21061 5.54096 6.94431 6.60753 5.87773C7.6741 4.81116 8.94041 3.96523 10.3341 3.38829C11.7277 2.81135 13.2214 2.51471 14.7298 2.51532C17.8308 2.51532 20.422 3.65632 22.41 5.50899L19.1725 8.74649V8.73832C17.9673 7.59032 16.4378 7.00115 14.7298 7.00115C10.9405 7.00115 7.86045 10.2025 7.86045 13.993C7.86045 17.7835 10.9405 20.9918 14.7298 20.9918C18.168 20.9918 20.5083 19.0248 20.989 16.3252H14.7298V11.8463H25.5319Z" fill="white"/>
</svg>
