<svg width="40" height="40" viewBox="0 0 40 40" fill="none" xmlns="http://www.w3.org/2000/svg">
<g clip-path="url(#clip0_3528_783)">
<path fill-rule="evenodd" clip-rule="evenodd" d="M19.5369 0.00188591C28.3426 -0.113593 36.6366 5.08185 39.2687 13.4935C41.825 21.6629 37.3889 29.9405 30.4868 34.9961C23.4995 40.114 14.1104 42.1311 7.0834 37.0679C-0.0232526 31.9472 -1.45622 22.2985 1.33498 13.991C4.03077 5.96744 11.0806 0.112787 19.5369 0.00188591Z" fill="#E5E5E5" fill-opacity="0.08"/>
<path fill-rule="evenodd" clip-rule="evenodd" d="M12.8204 16.8376V23.5043C12.8204 23.8347 12.5526 24.1026 12.2222 24.1026C11.8917 24.1026 11.6239 23.8347 11.6239 23.5043V21.7094H11.282V23.5043C11.282 24.0236 11.7029 24.4445 12.2222 24.4445C12.7414 24.4445 13.1623 24.0236 13.1623 23.5043V16.8376C13.1623 16.3184 12.7414 15.8975 12.2222 15.8975C11.7029 15.8975 11.282 16.3184 11.282 16.8376V20.5128H11.6239V16.8376C11.6239 16.5072 11.8917 16.2393 12.2222 16.2393C12.5526 16.2393 12.8204 16.5072 12.8204 16.8376Z" fill="white"/>
<path fill-rule="evenodd" clip-rule="evenodd" d="M5.88681 18.3998C5.98101 18.7143 6.15558 18.9998 6.39453 19.2306C6.48617 19.3193 6.58648 19.3991 6.69411 19.469L6.74339 23.5077C6.74513 23.7807 6.85906 24.0403 7.06011 24.2299C7.26115 24.4193 7.53282 24.523 7.81539 24.5181C8.09795 24.5131 8.36824 24.4 8.56681 24.2036C8.76535 24.007 8.87593 23.7434 8.87417 23.4704L8.87335 21.7094H8.71797H8.42158L8.42258 23.4759C8.42361 23.633 8.35997 23.7848 8.24564 23.8979C8.13132 24.0111 7.97568 24.0762 7.81298 24.0791C7.65028 24.082 7.49381 24.0222 7.37805 23.9131C7.26228 23.8041 7.19665 23.6545 7.19563 23.4974L7.14421 19.3405C7.14373 19.3032 7.13334 19.2666 7.114 19.2345C7.09467 19.2024 7.06706 19.1755 7.03381 19.1569C6.82576 19.04 6.64881 18.8784 6.51652 18.6842C6.38422 18.4902 6.30016 18.2689 6.27074 18.0372C6.24134 17.8058 6.26739 17.5701 6.34687 17.3485C6.42638 17.127 6.55722 16.9253 6.72932 16.7592C6.80694 16.6841 6.89228 16.6169 6.98397 16.5586L6.97611 17.8379C6.97588 17.8666 6.98154 17.895 6.99272 17.9215C7.00392 17.9478 7.02045 17.9719 7.04134 17.9921C7.06222 18.0123 7.08708 18.0282 7.11448 18.0391C7.14188 18.0499 7.17128 18.0554 7.20101 18.0552L8.47934 18.0478C8.53925 18.0475 8.59686 18.0241 8.63949 17.9829C8.68211 17.9417 8.70626 17.8861 8.70662 17.8282L8.71417 16.5487C8.94604 16.6941 9.13342 16.8963 9.25744 17.1352C9.38147 17.374 9.43776 17.641 9.42065 17.9092C9.40354 18.1772 9.31364 18.4372 9.16 18.6627C9.00636 18.8882 8.7944 19.0713 8.54546 19.1935C8.50781 19.2121 8.47614 19.2403 8.45402 19.2752C8.4319 19.3101 8.42021 19.3501 8.42026 19.3906L8.42089 20.5128H8.71797H8.87279L8.87233 19.5148C9.20245 19.3239 9.47116 19.0473 9.64756 18.7171C9.82395 18.3868 9.90087 18.0164 9.86946 17.6482C9.83804 17.28 9.69956 16.9291 9.46997 16.6359C9.24036 16.3426 8.92896 16.1189 8.57158 15.9904C8.5374 15.9781 8.50057 15.9741 8.46421 15.9786C8.42787 15.9831 8.39308 15.9961 8.36287 16.0164C8.33265 16.0367 8.30792 16.0637 8.29077 16.0952C8.27364 16.1266 8.26462 16.1615 8.26448 16.1969L8.25576 17.6126L7.42932 17.6172L7.43804 16.2016C7.43823 16.1663 7.42956 16.1316 7.41275 16.1004C7.39597 16.0693 7.37154 16.0426 7.34159 16.0227C7.31164 16.0028 7.27706 15.9903 7.24081 15.9862C7.20457 15.9821 7.16773 15.9866 7.13346 15.9993C6.81477 16.1172 6.53082 16.31 6.30752 16.5601C6.08422 16.8102 5.92874 17.1095 5.85523 17.4311C5.78175 17.7524 5.7926 18.0854 5.88681 18.3998Z" fill="white"/>
<path d="M15.2307 22.128C15.0848 22.128 14.9517 22.096 14.8313 22.0322C14.711 21.9666 14.6153 21.8728 14.5442 21.7505C14.4731 21.6283 14.4375 21.4806 14.4375 21.3075C14.4375 21.1524 14.4731 21.0203 14.5442 20.9109C14.6171 20.7996 14.7119 20.7076 14.8286 20.6346C14.9471 20.5599 15.0748 20.5015 15.2115 20.4596C15.3501 20.4158 15.4859 20.3839 15.619 20.3639C15.754 20.3439 15.8725 20.3319 15.9746 20.3283C15.9673 20.1716 15.9272 20.0575 15.8543 19.9864C15.7813 19.9153 15.6573 19.8798 15.4823 19.8798C15.3601 19.8798 15.2407 19.897 15.124 19.9317C15.0091 19.9645 14.8788 20.0165 14.7329 20.0876L14.6727 19.5351C14.8368 19.455 15.0009 19.3948 15.165 19.3546C15.331 19.3145 15.4987 19.2945 15.6683 19.2945C15.8725 19.2945 16.0484 19.3309 16.1961 19.4039C16.3438 19.4769 16.4578 19.5945 16.538 19.7567C16.6183 19.9172 16.6584 20.1295 16.6584 20.394V21.1324C16.6584 21.2692 16.6647 21.3685 16.6775 21.4305C16.6903 21.4907 16.714 21.529 16.7486 21.5454C16.7833 21.5618 16.8334 21.57 16.899 21.57H16.9866L16.9264 22.128H16.6802C16.5781 22.128 16.487 22.1143 16.4067 22.0869C16.3283 22.0615 16.2609 22.0249 16.2043 21.9775C16.1478 21.9302 16.1022 21.8745 16.0676 21.8107C15.9783 21.911 15.857 21.9893 15.7038 22.0459C15.5525 22.1006 15.3948 22.128 15.2307 22.128ZM15.5151 21.6083C15.5753 21.6083 15.65 21.5928 15.7394 21.5618C15.8287 21.529 15.909 21.4789 15.9801 21.4114V20.7878C15.8524 20.7933 15.7248 20.8143 15.5972 20.8507C15.4695 20.8871 15.3629 20.941 15.2772 21.0121C15.1915 21.0832 15.1486 21.1726 15.1486 21.2801C15.1486 21.3914 15.1778 21.4743 15.2361 21.529C15.2945 21.5818 15.3875 21.6083 15.5151 21.6083ZM17.4737 22.0733V19.3382H18.1082L18.1355 19.8469L17.9769 19.6391C18.0808 19.5516 18.2048 19.4722 18.3489 19.4011C18.493 19.33 18.6607 19.2945 18.8521 19.2945C19.2022 19.2945 19.462 19.4112 19.6316 19.6445C19.8012 19.8762 19.886 20.177 19.886 20.5471V22.0733H19.2077V20.6018C19.2077 20.3466 19.1648 20.1579 19.0791 20.0357C18.9952 19.9134 18.8576 19.8524 18.6661 19.8524C18.5111 19.8524 18.3844 19.8907 18.286 19.9673C18.1875 20.042 18.1008 20.1423 18.0261 20.2681L18.1519 19.9345V22.0733H17.4737ZM21.7061 22.128C21.429 22.128 21.1957 22.0632 21.006 21.9338C20.8183 21.8044 20.676 21.6321 20.5793 21.4169C20.4846 21.2016 20.4371 20.9664 20.4371 20.7112C20.4371 20.456 20.4846 20.2208 20.5793 20.0056C20.676 19.7904 20.8183 19.6181 21.006 19.4887C21.1957 19.3593 21.429 19.2945 21.7061 19.2945C21.9068 19.2945 22.0764 19.3281 22.2149 19.3957C22.3535 19.4613 22.4757 19.5461 22.5813 19.65L22.4172 19.7922V17.9707H23.0955V22.0733H22.4555L22.4227 21.6083L22.6196 21.7505C22.4921 21.8673 22.3598 21.9592 22.2231 22.0268C22.0863 22.0943 21.914 22.128 21.7061 22.128ZM21.8046 21.57C21.9542 21.57 22.0764 21.5336 22.1711 21.4606C22.266 21.3876 22.3362 21.2875 22.3817 21.1598C22.4273 21.0304 22.4501 20.8808 22.4501 20.7112C22.4501 20.5416 22.4273 20.3931 22.3817 20.2654C22.3362 20.136 22.266 20.0348 22.1711 19.9618C22.0764 19.8888 21.9542 19.8524 21.8046 19.8524C21.6624 19.8524 21.5412 19.8888 21.4408 19.9618C21.3407 20.0348 21.2641 20.136 21.2111 20.2654C21.1583 20.3931 21.1318 20.5416 21.1318 20.7112C21.1318 20.8808 21.1583 21.0304 21.2111 21.1598C21.2641 21.2875 21.3407 21.3876 21.4408 21.4606C21.5412 21.5336 21.6624 21.57 21.8046 21.57ZM25.154 22.128C24.8239 22.128 24.5485 22.0623 24.328 21.931C24.1092 21.7979 23.9451 21.6228 23.8357 21.4059C23.7263 21.1871 23.6716 20.9483 23.6716 20.6893C23.6716 20.4396 23.7225 20.2088 23.8248 19.9974C23.9287 19.7859 24.08 19.6163 24.2788 19.4887C24.4774 19.3593 24.72 19.2945 25.0063 19.2945C25.2689 19.2945 25.4877 19.3483 25.6627 19.4558C25.8378 19.5634 25.969 19.7075 26.0566 19.888C26.1441 20.0666 26.1878 20.2646 26.1878 20.4815C26.1878 20.5416 26.1841 20.6027 26.1769 20.6647C26.1695 20.7249 26.1586 20.7878 26.1441 20.8534H24.3772C24.4027 21.023 24.4555 21.1606 24.5359 21.2664C24.6179 21.3704 24.7172 21.4469 24.834 21.4962C24.9525 21.5454 25.0791 21.57 25.2142 21.57C25.3728 21.57 25.5205 21.55 25.6572 21.5098C25.794 21.468 25.9198 21.4133 26.0347 21.3457L26.0675 21.9201C25.9636 21.9748 25.834 22.0232 25.6791 22.0651C25.5241 22.1069 25.349 22.128 25.154 22.128ZM24.3937 20.394H25.4986C25.4986 20.3119 25.4831 20.2298 25.4521 20.1478C25.421 20.0639 25.369 19.9938 25.2962 19.9372C25.2251 19.8806 25.1284 19.8524 25.0063 19.8524C24.8313 19.8524 24.6935 19.9035 24.5933 20.0056C24.493 20.1076 24.4265 20.2372 24.3937 20.394ZM28.0784 22.128C27.7485 22.128 27.4731 22.0623 27.2525 21.931C27.0337 21.7979 26.8696 21.6228 26.7601 21.4059C26.6507 21.1871 26.596 20.9483 26.596 20.6893C26.596 20.4396 26.6472 20.2088 26.7492 19.9974C26.8531 19.7859 27.0046 19.6163 27.2032 19.4887C27.402 19.3593 27.6446 19.2945 27.9307 19.2945C28.1933 19.2945 28.4121 19.3483 28.5872 19.4558C28.7622 19.5634 28.8935 19.7075 28.981 19.888C29.0685 20.0666 29.1123 20.2646 29.1123 20.4815C29.1123 20.5416 29.1087 20.6027 29.1013 20.6647C29.0942 20.7249 29.0832 20.7878 29.0685 20.8534H27.3017C27.3273 21.023 27.3801 21.1606 27.4603 21.2664C27.5424 21.3704 27.6419 21.4469 27.7584 21.4962C27.8771 21.5454 28.0037 21.57 28.1386 21.57C28.2972 21.57 28.4449 21.55 28.5817 21.5098C28.7184 21.468 28.8443 21.4133 28.9591 21.3457L28.9919 21.9201C28.888 21.9748 28.7586 22.0232 28.6036 22.0651C28.4487 22.1069 28.2737 22.128 28.0784 22.128ZM27.3181 20.394H28.4231C28.4231 20.3119 28.4077 20.2298 28.3766 20.1478C28.3456 20.0639 28.2937 19.9938 28.2207 19.9372C28.1496 19.8806 28.053 19.8524 27.9307 19.8524C27.7557 19.8524 27.6181 19.9035 27.5178 20.0056C27.4176 20.1076 27.3509 20.2372 27.3181 20.394Z" fill="white"/>
<path d="M8.54712 20.342H11.4531" stroke="white" stroke-width="0.5"/>
<path d="M8.54712 21.8804H11.4531" stroke="white" stroke-width="0.5"/>
</g>
<defs>
<clipPath id="clip0_3528_783">
<rect width="40" height="40" fill="white"/>
</clipPath>
</defs>
</svg>
