<svg width="29" height="28" viewBox="0 0 29 28" fill="none" xmlns="http://www.w3.org/2000/svg">
<path d="M20.7302 6.36998C20.4533 6.36998 20.1826 6.45209 19.9524 6.60592C19.7221 6.75976 19.5427 6.97841 19.4367 7.23422C19.3308 7.49004 19.303 7.77153 19.3571 8.04311C19.4111 8.31468 19.5444 8.56414 19.7402 8.75993C19.936 8.95572 20.1855 9.08906 20.457 9.14308C20.7286 9.1971 21.0101 9.16937 21.2659 9.06341C21.5217 8.95745 21.7404 8.77801 21.8942 8.54778C22.0481 8.31755 22.1302 8.04687 22.1302 7.76998C22.1302 7.39868 21.9827 7.04258 21.7201 6.78003C21.4576 6.51748 21.1015 6.36998 20.7302 6.36998ZM26.0968 9.19331C26.0739 8.22535 25.8926 7.26767 25.5602 6.35831C25.2649 5.57962 24.803 4.87485 24.2068 4.29331C23.6291 3.69531 22.923 3.23652 22.1418 2.95165C21.2349 2.60883 20.2762 2.42339 19.3068 2.40331C18.0702 2.33331 17.6735 2.33331 14.5002 2.33331C11.3268 2.33331 10.9302 2.33331 9.6935 2.40331C8.72417 2.42339 7.7654 2.60883 6.8585 2.95165C6.07914 3.24011 5.37375 3.69841 4.7935 4.29331C4.19549 4.87102 3.7367 5.57716 3.45183 6.35831C3.10902 7.26521 2.92357 8.22399 2.9035 9.19331C2.8335 10.43 2.8335 10.8266 2.8335 14C2.8335 17.1733 2.8335 17.57 2.9035 18.8066C2.92357 19.776 3.10902 20.7347 3.45183 21.6416C3.7367 22.4228 4.19549 23.1289 4.7935 23.7066C5.37375 24.3015 6.07914 24.7598 6.8585 25.0483C7.7654 25.3911 8.72417 25.5766 9.6935 25.5966C10.9302 25.6666 11.3268 25.6666 14.5002 25.6666C17.6735 25.6666 18.0702 25.6666 19.3068 25.5966C20.2762 25.5766 21.2349 25.3911 22.1418 25.0483C22.923 24.7634 23.6291 24.3046 24.2068 23.7066C24.8044 23.1263 25.2666 22.4212 25.5602 21.6416C25.8926 20.7323 26.0739 19.7746 26.0968 18.8066C26.0968 17.57 26.1668 17.1733 26.1668 14C26.1668 10.8266 26.1668 10.43 26.0968 9.19331ZM23.9968 18.6666C23.9886 19.4072 23.8544 20.141 23.6002 20.8366C23.4139 21.3444 23.1147 21.8031 22.7252 22.1783C22.3465 22.5636 21.8888 22.8622 21.3835 23.0533C20.6879 23.3076 19.9541 23.4417 19.2135 23.45C18.0468 23.5083 17.6152 23.52 14.5468 23.52C11.4785 23.52 11.0468 23.52 9.88016 23.45C9.11115 23.4651 8.34536 23.3467 7.61683 23.1C7.13405 22.8985 6.69739 22.6008 6.3335 22.225C5.94627 21.8502 5.65081 21.391 5.47016 20.8833C5.18438 20.1779 5.02636 19.4274 5.0035 18.6666C5.0035 17.5 4.9335 17.0683 4.9335 14C4.9335 10.9316 4.9335 10.5 5.0035 9.33331C5.00775 8.57612 5.14599 7.82565 5.41183 7.11665C5.61722 6.62421 5.93247 6.18525 6.3335 5.83331C6.68691 5.43104 7.12523 5.11225 7.61683 4.89998C8.3278 4.6427 9.07743 4.50856 9.8335 4.50331C11.0002 4.50331 11.4318 4.43331 14.5002 4.43331C17.5685 4.43331 18.0002 4.43331 19.1668 4.50331C19.9074 4.51158 20.6412 4.64571 21.3368 4.89998C21.867 5.09674 22.3428 5.41663 22.7252 5.83331C23.1063 6.19267 23.4049 6.63055 23.6002 7.11665C23.8597 7.82701 23.9939 8.57703 23.9968 9.33331C24.0552 10.5 24.0668 10.9316 24.0668 14C24.0668 17.0683 24.0552 17.5 23.9968 18.6666ZM14.5002 8.01498C13.3169 8.01729 12.161 8.37026 11.1783 9.0293C10.1956 9.68834 9.43027 10.6239 8.97907 11.7177C8.52787 12.8115 8.41101 14.0145 8.64326 15.1747C8.8755 16.3349 9.44644 17.4003 10.2839 18.2361C11.1214 19.072 12.1878 19.6408 13.3485 19.8708C14.5092 20.1008 15.7119 19.9816 16.8049 19.5283C17.8978 19.0749 18.8319 18.3078 19.489 17.3239C20.1461 16.3399 20.4968 15.1832 20.4968 14C20.4984 13.2126 20.3442 12.4327 20.0433 11.7051C19.7423 10.9775 19.3005 10.3166 18.7432 9.76037C18.1859 9.20415 17.5241 8.7636 16.7959 8.46406C16.0677 8.16452 15.2875 8.0119 14.5002 8.01498ZM14.5002 17.885C13.7318 17.885 12.9807 17.6571 12.3418 17.2302C11.7029 16.8033 11.2049 16.1966 10.9109 15.4867C10.6168 14.7768 10.5399 13.9957 10.6898 13.2421C10.8397 12.4884 11.2097 11.7962 11.7531 11.2529C12.2964 10.7095 12.9886 10.3395 13.7422 10.1896C14.4959 10.0397 15.277 10.1167 15.9869 10.4107C16.6968 10.7048 17.3035 11.2027 17.7304 11.8416C18.1573 12.4805 18.3852 13.2316 18.3852 14C18.3852 14.5102 18.2847 15.0154 18.0894 15.4867C17.8942 15.9581 17.608 16.3863 17.2473 16.7471C16.8865 17.1078 16.4582 17.394 15.9869 17.5893C15.5155 17.7845 15.0103 17.885 14.5002 17.885Z" fill="white"/>
</svg>
