<svg width="19" height="24" viewBox="0 0 19 24" fill="none" xmlns="http://www.w3.org/2000/svg">
<path d="M16.3415 2.2579C14.7942 1.37693 13.9263 0.880973 12.3789 0L2.40205 2.64129C1.511 3.78819 0.896016 4.5778 0.0049593 5.7247L0 22.6247C1.08448 23.2381 1.35063 23.3866 2.43511 24L17.4293 15.2996C17.9815 13.97 18.3617 13.0482 18.9139 11.7202L16.3432 2.25953L16.3415 2.2579ZM11.8929 12.0889C10.7191 12.3989 10.0612 12.5734 8.88577 12.8834L6.31013 11.4168C5.99438 10.2584 5.81749 9.6075 5.50339 8.44919L6.99123 5.90742C8.16498 5.59744 8.82294 5.42288 9.99834 5.11128L12.574 6.57957C12.8897 7.73788 13.0666 8.38719 13.3807 9.54714L11.8929 12.0889Z" fill="#FFDE00"/>
</svg>
